<svg width="40" height="40" viewBox="0 0 40 40" fill="none" xmlns="http://www.w3.org/2000/svg">
<path d="M20 1.70132C30.0945 1.70132 38.2609 9.86767 38.2609 19.9622C38.2609 30.0567 30.0945 38.2231 20 38.2231C9.90548 38.2231 1.73913 30.0567 1.73913 19.9622C1.73913 9.86767 9.90548 1.70132 20 1.70132ZM20 0C17.3157 0 14.707 0.529302 12.2117 1.5879C9.82986 2.6087 7.71267 4.04537 5.86011 5.86012C4.04537 7.67486 2.57089 9.82987 1.5879 12.2117C0.529299 14.6692 0 17.2779 0 20C0 22.6843 0.529299 25.293 1.5879 27.7883C2.60869 30.1701 4.04537 32.2873 5.86011 34.1399C7.67486 35.9546 9.82986 37.4291 12.2117 38.4121C14.6692 39.4707 17.2779 40 20 40C22.7221 40 25.293 39.4707 27.7883 38.4121C30.1701 37.3913 32.2873 35.9546 34.1399 34.1399C35.9546 32.3251 37.4291 30.1701 38.4121 27.7883C39.4707 25.3308 40 22.7221 40 20C40 17.3157 39.4707 14.707 38.4121 12.2117C37.3913 9.82987 35.9546 7.71267 34.1399 5.86012C32.3251 4.04537 30.1701 2.57089 27.7883 1.5879C25.293 0.529302 22.6843 0 20 0Z" fill="white"/>
<path d="M19.9997 3.89404C11.115 3.89404 3.93164 11.0774 3.93164 19.9621C3.93164 28.8468 11.115 36.0302 19.9997 36.0302C28.8844 36.0302 36.0677 28.8468 36.0677 19.9621C36.0299 11.0774 28.8466 3.89404 19.9997 3.89404ZM15.3872 18.0339L12.9298 20.4914H15.3872V23.1757C15.3872 25.1039 13.8371 26.6162 11.9468 26.6162C10.0186 26.6162 8.50631 25.0661 8.50631 23.1757V16.7863C8.50631 14.8581 10.0564 13.3458 11.9468 13.3458C13.8749 13.3458 15.3872 14.8959 15.3872 16.7863V18.0339ZM31.5309 20.4914V23.1757C31.5309 25.1039 29.9808 26.6162 28.0904 26.6162C26.2001 26.6162 24.65 25.0661 24.65 23.1757V16.7863C24.65 14.8581 26.2001 13.3458 28.0904 13.3458C29.9808 13.3458 31.5309 14.8959 31.5309 16.7863V18.0717L29.0734 20.5292H31.5309V20.4914Z" fill="white"/>
</svg>
